<?xml version="1.0" encoding="UTF-8"?>
<svg width="24px" height="24px" viewBox="0 0 24 24" version="1.1" xmlns="http://www.w3.org/2000/svg" xmlns:xlink="http://www.w3.org/1999/xlink">
    <title>fb</title>
    <defs>
        <linearGradient x1="50%" y1="-1.05367123e-06%" x2="50%" y2="99.9999993%" id="linearGradient-1">
            <stop stop-color="#18ACFE" offset="0%"></stop>
            <stop stop-color="#0165E1" offset="100%"></stop>
        </linearGradient>
    </defs>
    <g id="fb" stroke="none" stroke-width="1" fill="none" fill-rule="evenodd">
        <path d="M12,3.00000019 C16.9705627,3.00000019 21,7.02943733 21,12.0000002 C21,15.2153903 19.2846097,18.1865336 16.5,19.7942287 C15.5352129,20.3512489 14.4928579,20.7152775 13.4266851,20.8863148 C13.4356698,20.8654481 13.44,20.8432653 13.44,20.82 L13.44,14.7 C13.44,14.6 13.52,14.52 13.62,14.52 L15.42,14.52 C15.52,14.52 15.6,14.44 15.6,14.34 L15.6,12.18 C15.6,12.08 15.52,12 15.42,12 L13.62,12 C13.5205887,12 13.44,11.9194113 13.44,11.82 L13.44,10.2 C13.44,9.48 14.34,9.12 14.7,9.12 L15.78,9.12 C15.88,9.12 15.96,9.04 15.96,8.94 L15.96,6.78 C15.96,6.68 15.88,6.6 15.78,6.6 L13.44,6.6 C11.712,6.6 10.56,8.4 10.56,9.48 L10.56,11.82 C10.56,11.92 10.48,12 10.38,12 L8.58,12 C8.48,12 8.4,12.08 8.4,12.18 L8.4,14.34 C8.4,14.44 8.48,14.52 8.58,14.52 L10.38,14.52 C10.48,14.52 10.56,14.6 10.56,14.7 L10.56,20.82 C10.56,20.8432653 10.5643302,20.8654481 10.572235,20.8857927 C9.50714212,20.7152775 8.46478713,20.3512489 7.5,19.7942287 C4.71539025,18.1865336 3,15.2153903 3,12.0000002 C3,7.02943733 7.02943733,3.00000019 12,3.00000019 Z" id="Combined-Shape" fill="url(#linearGradient-1)" fill-rule="nonzero"></path>
    </g>
</svg>