<?xml version="1.0" encoding="UTF-8"?>
<svg width="24px" height="24px" viewBox="0 0 24 24" version="1.1" xmlns="http://www.w3.org/2000/svg" xmlns:xlink="http://www.w3.org/1999/xlink">
    <title>telegran</title>
    <defs>
        <linearGradient x1="49.9999991%" y1="-2.46716228e-15%" x2="49.9999991%" y2="99.2555556%" id="linearGradient-1">
            <stop stop-color="#2CA4E0" offset="0%"></stop>
            <stop stop-color="#0D83BF" offset="100%"></stop>
        </linearGradient>
    </defs>
    <g id="telegran" stroke="none" stroke-width="1" fill="none" fill-rule="evenodd">
        <path d="M12.0000002,3 C15.2153903,3 18.1865336,4.71539025 19.7942287,7.5 C21.4019239,10.2846097 21.4019239,13.7153903 19.7942287,16.5 C18.1865336,19.2846097 15.2153903,21 12.0000002,21 C7.02943733,21 3.00000019,16.9705627 3.00000019,12 C3.00000019,7.02943733 7.02943733,3 12.0000002,3 Z M15.68,8.418 C15.4468966,8.42213793 15.1272295,8.50951011 14.1312247,8.90447997 L13.8115434,9.03242322 C13.4135339,9.19297979 12.9254483,9.39396552 12.322,9.645 C10.5676595,10.3866525 8.81828725,11.1400026 7.074,11.905 C6.648,12.074 6.424,12.24 6.404,12.402 C6.366,12.714 6.813,12.81 7.376,12.994 C7.836,13.143 8.455,13.318 8.776,13.324 C9.067,13.331 9.392,13.211 9.752,12.964 C11.7653214,11.6045357 12.9783954,10.7976875 13.3917762,10.5429011 L13.4814745,10.4889579 C13.5172538,10.4682474 13.5394286,10.4569286 13.548,10.455 C13.605,10.442 13.682,10.426 13.735,10.472 C13.787,10.52 13.782,10.608 13.777,10.632 C13.732,10.822 11.429,12.917 11.297,13.054 C10.79,13.58 10.214,13.902 11.103,14.487 C11.871,14.994 12.319,15.317 13.111,15.837 C13.617,16.169 14.014,16.562 14.537,16.514 C14.777,16.491 15.026,16.266 15.152,15.591 C15.45,13.997 16.036,10.544 16.172,9.121 C16.184,8.996 16.169,8.836 16.157,8.766 C16.145,8.696 16.119,8.597 16.029,8.523 C15.9266027,8.45217072 15.8044804,8.41542905 15.68,8.418 Z" id="Combined-Shape" fill="url(#linearGradient-1)" fill-rule="nonzero"></path>
    </g>
</svg>