<svg fill="none" height="24" width="24" xmlns="http://www.w3.org/2000/svg">
  <path d="M15.727 9.597a6.74 6.74 0 0 0 3.943 1.267v-2.84c-.279 0-.556-.029-.828-.087v2.235a6.742 6.742 0 0 1-3.943-1.266V14.7c0 2.899-2.341 5.248-5.23 5.248a5.191 5.191 0 0 1-2.91-.887 5.205 5.205 0 0 0 3.738 1.579c2.889 0 5.23-2.35 5.23-5.249V9.597zm1.021-2.864a3.964 3.964 0 0 1-1.021-2.317v-.365h-.785a3.975 3.975 0 0 0 1.806 2.682zM8.585 16.836a2.396 2.396 0 0 1-.488-1.453 2.396 2.396 0 0 1 3.118-2.288v-2.903a5.254 5.254 0 0 0-.828-.048v2.26a2.396 2.396 0 0 0-3.118 2.288 2.4 2.4 0 0 0 1.316 2.144z" fill="#ff004f"/>
  <path d="M14.899 8.906a6.742 6.742 0 0 0 3.943 1.266V7.937a3.954 3.954 0 0 1-2.094-1.204 3.975 3.975 0 0 1-1.806-2.682h-2.06v11.34a2.397 2.397 0 0 1-2.393 2.393 2.386 2.386 0 0 1-1.904-.948 2.401 2.401 0 0 1-1.316-2.144 2.396 2.396 0 0 1 3.118-2.288v-2.26c-2.837.06-5.12 2.386-5.12 5.247a5.24 5.24 0 0 0 1.491 3.67c.832.56 1.834.887 2.912.887 2.888 0 5.229-2.35 5.229-5.248V8.906z" fill="#fff"/>
  <path d="M18.842 7.938v-.604a3.931 3.931 0 0 1-2.093-.6 3.95 3.95 0 0 0 2.093 1.204zm-3.9-3.886a4.066 4.066 0 0 1-.043-.326V3.36h-2.846V14.7a2.396 2.396 0 0 1-2.392 2.393c-.387 0-.752-.092-1.076-.256a2.386 2.386 0 0 0 1.904.947 2.397 2.397 0 0 0 2.392-2.392V4.052zm-4.555 6.093v-.643a5.26 5.26 0 0 0-.717-.049c-2.889 0-5.23 2.35-5.23 5.248 0 1.817.92 3.418 2.318 4.36a5.24 5.24 0 0 1-1.49-3.669c0-2.861 2.282-5.188 5.12-5.247z" fill="#00f2ea"/>
</svg>
