<?xml version="1.0" encoding="UTF-8"?>
<svg width="24px" height="24px" viewBox="0 0 24 24" version="1.1" xmlns="http://www.w3.org/2000/svg" xmlns:xlink="http://www.w3.org/1999/xlink">
    <title>vk</title>
    <g id="vk" stroke="none" stroke-width="1" fill="none" fill-rule="evenodd">
        <path d="M19.735,4.265 C20.9209375,5.4509375 20.9950586,7.31539062 20.9996912,10.8998633 L20.9996912,13.1001367 C20.9950586,16.6846094 20.9209375,18.5490625 19.735,19.735 C18.5490625,20.9209375 16.6846094,20.9950586 13.1001367,20.9996912 L10.8998633,20.9996912 C7.31539063,20.9950586 5.4509375,20.9209375 4.265,19.735 C3.03953125,18.5095312 3.00123535,16.5595586 3.0000386,12.7359175 L3,11.64 C3,7.567 3,5.53 4.265,4.265 C5.49046875,3.03953125 7.44044141,3.00123535 11.2640825,3.0000386 L12.36,3 C16.433,3 18.47,3 19.735,4.265 Z M7.975,8.4 L5.88,8.4 C5.979,13.123 8.365,15.96 12.546,15.96 L12.546,15.96 L12.784,15.96 L12.784,13.259 C14.32,13.41 15.482,14.523 15.949,15.96 L15.949,15.96 L18.12,15.96 C17.524,13.811 15.956,12.623 14.978,12.169 C15.956,11.609 17.332,10.247 17.661,8.4 L17.661,8.4 L15.689,8.4 C15.26,9.899 13.991,11.26 12.784,11.39 L12.784,11.39 L12.784,8.4 L10.811,8.4 L10.811,13.637 C9.588,13.334 8.043,11.866 7.975,8.4 L7.975,8.4 Z" id="Combined-Shape" fill="#0077FF" fill-rule="nonzero"></path>
    </g>
</svg>